<?xml version="1.0" standalone="no"?>
<!DOCTYPE svg PUBLIC "-//W3C//DTD SVG 20010904//EN"
 "http://www.w3.org/TR/2001/REC-SVG-20010904/DTD/svg10.dtd">
<svg version="1.0" xmlns="http://www.w3.org/2000/svg"
 width="512.000000pt" height="512.000000pt" viewBox="0 0 512.000000 512.000000"
 preserveAspectRatio="xMidYMid meet">

<g transform="translate(0.000000,512.000000) scale(0.100000,-0.100000)"
fill="#000000" stroke="none">
<path d="M3552 4700 c-245 -64 -447 -252 -526 -491 -32 -96 -46 -215 -46 -401
l0 -148 -74 0 c-82 0 -143 -18 -194 -56 l-34 -26 -26 25 c-52 50 -86 57 -280
57 -191 0 -275 -13 -379 -61 -215 -98 -375 -293 -428 -523 -15 -65 -29 -601
-18 -678 5 -37 6 -37 32 -24 14 8 40 17 57 20 l31 7 6 142 c3 78 11 165 18
194 l12 51 256 4 c207 4 267 8 311 22 126 40 237 113 315 208 22 26 42 48 45
48 3 0 18 -20 33 -45 68 -106 217 -203 347 -224 36 -6 136 -11 222 -11 l156 0
12 -52 c7 -29 15 -118 19 -198 l6 -144 30 -6 c17 -4 41 -12 53 -19 13 -7 27
-10 30 -6 4 4 6 169 6 368 -2 407 -6 444 -72 577 -51 106 -178 233 -280 281
l-73 34 5 75 c3 41 10 92 16 113 l11 37 237 0 c269 0 321 8 442 67 57 28 95
58 161 124 l86 86 18 -33 c28 -52 123 -142 189 -179 98 -54 159 -65 363 -65
l180 0 12 -52 c7 -29 15 -119 18 -200 5 -127 8 -148 22 -148 9 0 35 -9 59 -20
l42 -19 2 222 c4 329 -2 524 -18 596 -38 169 -175 341 -334 420 -179 87 -354
94 -471 16 l-39 -26 -38 29 c-59 46 -90 52 -281 51 -140 0 -191 -4 -249 -19z"/>
<path d="M671 3704 c-53 -44 -54 -123 -1 -175 56 -56 153 -31 186 47 19 44 19
44 -21 42 -19 -1 -41 5 -50 12 -18 15 -20 71 -3 88 9 9 2 12 -34 12 -35 0 -54
-6 -77 -26z"/>
<path d="M1434 3711 c-29 -18 -54 -63 -54 -98 0 -30 34 -84 61 -98 78 -41 179
13 179 95 0 18 -3 19 -21 9 -41 -21 -102 52 -70 84 19 19 12 27 -26 27 -21 0
-52 -9 -69 -19z"/>
<path d="M3548 3654 c-63 -34 -77 -122 -27 -178 56 -64 145 -56 189 16 29 47
27 70 -5 62 -37 -9 -75 19 -75 56 0 16 5 32 10 35 41 26 -46 34 -92 9z"/>
<path d="M4286 3639 c-43 -37 -54 -81 -32 -132 16 -40 67 -77 104 -77 58 0
122 57 122 109 0 17 -4 20 -29 15 -22 -5 -34 -1 -51 16 -21 21 -23 41 -5 83 6
15 1 17 -34 17 -31 0 -48 -7 -75 -31z"/>
<path d="M3882 3324 c-47 -33 -8 -106 65 -120 107 -20 203 56 147 117 -21 23
-43 24 -70 4 -10 -8 -28 -14 -39 -14 -11 0 -29 6 -39 14 -25 19 -36 19 -64 -1z"/>
<path d="M3747 3012 c-24 -26 -21 -45 9 -76 91 -90 242 -118 361 -66 95 41
138 94 113 139 -13 26 -71 29 -91 5 -7 -8 -31 -25 -53 -36 -77 -40 -208 -21
-255 36 -18 22 -64 20 -84 -2z"/>
<path d="M4935 2999 c-27 -13 -55 -18 -86 -16 l-47 4 -21 -51 c-44 -106 -148
-242 -244 -318 l-49 -38 251 0 251 0 0 220 c0 121 -3 220 -7 219 -5 0 -26 -9
-48 -20z"/>
<path d="M2104 2591 c-94 -57 -53 -211 57 -211 69 0 105 28 124 99 7 22 5 23
-20 17 -56 -14 -94 41 -65 95 10 17 7 19 -27 19 -21 0 -52 -9 -69 -19z"/>
<path d="M2858 2592 c-65 -40 -73 -131 -16 -184 24 -22 39 -28 77 -28 53 0 84
18 106 60 21 41 20 63 -4 55 -50 -15 -99 43 -72 86 6 10 11 21 11 24 0 12 -78
3 -102 -13z"/>
<path d="M294 2315 c-73 -16 -175 -64 -228 -108 l-38 -33 12 -59 c127 -638
439 -1162 923 -1550 86 -69 284 -205 298 -205 5 0 9 75 9 168 0 272 35 378
170 512 121 121 246 169 441 170 l96 0 -5 27 c-9 46 15 53 180 53 l148 0 0 53
0 52 -76 28 c-193 73 -383 251 -470 442 l-25 55 -55 0 c-61 0 -114 22 -153 64
l-24 25 -72 -122 c-39 -67 -78 -122 -86 -122 -8 0 -47 55 -87 123 l-74 123
-56 -3 -56 -3 -67 -113 c-81 -139 -85 -143 -107 -116 -9 11 -87 140 -172 287
l-155 267 -105 -1 c-58 0 -132 -7 -166 -14z m1450 -685 c24 -9 26 -14 26 -68
0 -32 -5 -63 -12 -70 -8 -8 -52 -12 -132 -12 -143 0 -156 7 -156 80 0 27 6 52
13 58 21 18 222 27 261 12z"/>
<path d="M2477 868 c-77 -126 -77 -126 -77 -201 0 -40 5 -78 11 -84 8 -8 8
-13 0 -17 -8 -5 -11 -94 -11 -281 0 -240 2 -274 16 -279 9 -3 69 -6 135 -6
l119 0 0 278 c0 187 -4 282 -11 289 -8 8 -8 13 0 17 7 4 11 43 11 96 0 84 -2
92 -35 149 l-36 61 -54 0 c-46 0 -57 -4 -68 -22z"/>
</g>
</svg>
